<svg width="47" height="47" viewBox="0 0 47 47" fill="none" xmlns="http://www.w3.org/2000/svg">
<path d="M22.3984 7.34375V2.9375C22.3984 2.64535 22.5145 2.36516 22.7211 2.15858C22.9277 1.95199 23.2078 1.83594 23.5 1.83594C23.7922 1.83594 24.0723 1.95199 24.2789 2.15858C24.4855 2.36516 24.6016 2.64535 24.6016 2.9375V7.34375C24.6016 7.6359 24.4855 7.91609 24.2789 8.12267C24.0723 8.32926 23.7922 8.44531 23.5 8.44531C23.2078 8.44531 22.9277 8.32926 22.7211 8.12267C22.5145 7.91609 22.3984 7.6359 22.3984 7.34375ZM34.8828 23.5C34.8828 25.7513 34.2152 27.9521 32.9645 29.824C31.7137 31.6958 29.936 33.1548 27.856 34.0163C25.7761 34.8779 23.4874 35.1033 21.2793 34.6641C19.0713 34.2249 17.0431 33.1408 15.4511 31.5489C13.8592 29.9569 12.7751 27.9287 12.3359 25.7207C11.8967 23.5126 12.1221 21.2239 12.9837 19.144C13.8452 17.064 15.3042 15.2863 17.176 14.0355C19.0479 12.7848 21.2487 12.1172 23.5 12.1172C26.5179 12.1206 29.4112 13.3209 31.5451 15.4549C33.6791 17.5888 34.8794 20.4821 34.8828 23.5ZM32.6797 23.5C32.6797 21.6844 32.1413 19.9096 31.1326 18.4C30.124 16.8904 28.6903 15.7139 27.0129 15.0191C25.3355 14.3243 23.4898 14.1425 21.7091 14.4967C19.9284 14.8509 18.2928 15.7252 17.009 17.009C15.7252 18.2928 14.8509 19.9284 14.4967 21.7091C14.1425 23.4898 14.3243 25.3355 15.0191 27.0129C15.7139 28.6903 16.8904 30.124 18.4 31.1326C19.9096 32.1413 21.6844 32.6797 23.5 32.6797C25.9337 32.6768 28.2669 31.7087 29.9878 29.9878C31.7087 28.2669 32.6768 25.9337 32.6797 23.5ZM10.9716 12.5284C11.0724 12.6367 11.194 12.7235 11.3291 12.7837C11.4643 12.8439 11.6101 12.8763 11.758 12.8789C11.906 12.8815 12.0529 12.8543 12.19 12.7989C12.3272 12.7435 12.4518 12.661 12.5564 12.5564C12.661 12.4518 12.7435 12.3272 12.7989 12.19C12.8543 12.0529 12.8815 11.906 12.8789 11.758C12.8763 11.6101 12.8439 11.4643 12.7837 11.3291C12.7235 11.194 12.6367 11.0724 12.5284 10.9716L9.59094 8.03406C9.38212 7.83948 9.10592 7.73355 8.82055 7.73859C8.53517 7.74362 8.26288 7.85923 8.06106 8.06106C7.85923 8.26288 7.74362 8.53517 7.73859 8.82055C7.73355 9.10592 7.83948 9.38212 8.03406 9.59094L10.9716 12.5284ZM10.9716 34.4716L8.03406 37.4091C7.92583 37.5099 7.83903 37.6315 7.77882 37.7666C7.71861 37.9018 7.68624 38.0476 7.68363 38.1955C7.68102 38.3435 7.70823 38.4904 7.76363 38.6275C7.81904 38.7647 7.9015 38.8893 8.0061 38.9939C8.1107 39.0985 8.2353 39.181 8.37247 39.2364C8.50963 39.2918 8.65655 39.319 8.80445 39.3164C8.95236 39.3138 9.09823 39.2814 9.23335 39.2212C9.36848 39.161 9.49009 39.0742 9.59094 38.9659L12.5284 36.0284C12.6367 35.9276 12.7235 35.806 12.7837 35.6709C12.8439 35.5357 12.8763 35.3899 12.8789 35.242C12.8815 35.094 12.8543 34.9471 12.7989 34.81C12.7435 34.6728 12.661 34.5482 12.5564 34.4436C12.4518 34.339 12.3272 34.2565 12.19 34.2011C12.0529 34.1457 11.906 34.1185 11.758 34.1211C11.6101 34.1237 11.4643 34.1561 11.3291 34.2163C11.194 34.2765 11.0724 34.3633 10.9716 34.4716ZM35.25 12.8516C35.5421 12.8513 35.8221 12.7351 36.0284 12.5284L38.9659 9.59094C39.1605 9.38212 39.2664 9.10592 39.2614 8.82055C39.2564 8.53517 39.1408 8.26288 38.9389 8.06106C38.7371 7.85923 38.4648 7.74362 38.1795 7.73859C37.8941 7.73355 37.6179 7.83948 37.4091 8.03406L34.4716 10.9716C34.3177 11.1256 34.2129 11.3218 34.1705 11.5354C34.1281 11.7489 34.1499 11.9703 34.2332 12.1714C34.3165 12.3726 34.4575 12.5446 34.6385 12.6656C34.8195 12.7867 35.0323 12.8514 35.25 12.8516ZM36.0284 34.4716C35.8196 34.277 35.5434 34.1711 35.258 34.1761C34.9727 34.1811 34.7004 34.2967 34.4986 34.4986C34.2967 34.7004 34.1811 34.9727 34.1761 35.258C34.1711 35.5434 34.277 35.8196 34.4716 36.0284L37.4091 38.9659C37.6179 39.1605 37.8941 39.2664 38.1795 39.2614C38.4648 39.2564 38.7371 39.1408 38.9389 38.9389C39.1408 38.7371 39.2564 38.4648 39.2614 38.1795C39.2664 37.8941 39.1605 37.6179 38.9659 37.4091L36.0284 34.4716ZM8.44531 23.5C8.44531 23.2078 8.32926 22.9277 8.12267 22.7211C7.91609 22.5145 7.6359 22.3984 7.34375 22.3984H2.9375C2.64535 22.3984 2.36516 22.5145 2.15858 22.7211C1.95199 22.9277 1.83594 23.2078 1.83594 23.5C1.83594 23.7922 1.95199 24.0723 2.15858 24.2789C2.36516 24.4855 2.64535 24.6016 2.9375 24.6016H7.34375C7.6359 24.6016 7.91609 24.4855 8.12267 24.2789C8.32926 24.0723 8.44531 23.7922 8.44531 23.5ZM23.5 38.5547C23.2078 38.5547 22.9277 38.6707 22.7211 38.8773C22.5145 39.0839 22.3984 39.3641 22.3984 39.6562V44.0625C22.3984 44.3547 22.5145 44.6348 22.7211 44.8414C22.9277 45.048 23.2078 45.1641 23.5 45.1641C23.7922 45.1641 24.0723 45.048 24.2789 44.8414C24.4855 44.6348 24.6016 44.3547 24.6016 44.0625V39.6562C24.6016 39.3641 24.4855 39.0839 24.2789 38.8773C24.0723 38.6707 23.7922 38.5547 23.5 38.5547ZM44.0625 22.3984H39.6562C39.3641 22.3984 39.0839 22.5145 38.8773 22.7211C38.6707 22.9277 38.5547 23.2078 38.5547 23.5C38.5547 23.7922 38.6707 24.0723 38.8773 24.2789C39.0839 24.4855 39.3641 24.6016 39.6562 24.6016H44.0625C44.3547 24.6016 44.6348 24.4855 44.8414 24.2789C45.048 24.0723 45.1641 23.7922 45.1641 23.5C45.1641 23.2078 45.048 22.9277 44.8414 22.7211C44.6348 22.5145 44.3547 22.3984 44.0625 22.3984Z" fill="#FDB3A4"/>
</svg>
