<svg width="39" height="39" viewBox="0 0 39 39" fill="none" xmlns="http://www.w3.org/2000/svg">
<path d="M27.5795 10.1579C27.2064 9.95028 26.7961 9.81827 26.372 9.76938C25.9479 9.72049 25.5183 9.75569 25.1078 9.87295C24.6973 9.99022 24.3139 10.1873 23.9796 10.4528C23.6453 10.7183 23.3666 11.0472 23.1595 11.4205L17.1259 22.2787L13.6728 18.8256C13.373 18.5152 13.0143 18.2676 12.6178 18.0973C12.2213 17.927 11.7948 17.8373 11.3633 17.8336C10.9318 17.8298 10.5038 17.912 10.1044 18.0755C9.70499 18.2389 9.34212 18.4802 9.03697 18.7853C8.73182 19.0905 8.4905 19.4534 8.32708 19.8528C8.16367 20.2522 8.08144 20.6801 8.08519 21.1117C8.08894 21.5432 8.1786 21.9697 8.34893 22.3662C8.51925 22.7627 8.76685 23.1213 9.07725 23.4211L15.5773 29.9211C16.1915 30.537 17.0203 30.875 17.875 30.875L18.3251 30.8425C18.8233 30.7728 19.2984 30.5885 19.7132 30.3039C20.128 30.0194 20.4711 29.6425 20.7155 29.2029L28.8405 14.5779C29.0479 14.2049 29.1799 13.7946 29.2288 13.3706C29.2777 12.9466 29.2426 12.5171 29.1255 12.1067C29.0084 11.6963 28.8116 11.3129 28.5463 10.9785C28.2811 10.6441 27.9525 10.3653 27.5795 10.1579Z" fill="#B8CEC2"/>
</svg>
