<svg width="24" height="24" viewBox="0 0 24 24" fill="none" xmlns="http://www.w3.org/2000/svg">
<g clip-path="url(#clip0_2_33)">
<path fill-rule="evenodd" clip-rule="evenodd" d="M12.707 15.707C12.5195 15.8945 12.2652 15.9998 12 15.9998C11.7348 15.9998 11.4805 15.8945 11.293 15.707L5.63601 10.05C5.5405 9.95776 5.46431 9.84742 5.41191 9.72541C5.3595 9.60341 5.33191 9.47219 5.33076 9.33941C5.3296 9.20663 5.3549 9.07495 5.40519 8.95205C5.45547 8.82916 5.52972 8.7175 5.62361 8.62361C5.71751 8.52972 5.82916 8.45547 5.95205 8.40519C6.07495 8.3549 6.20663 8.3296 6.33941 8.33076C6.47219 8.33191 6.60341 8.3595 6.72541 8.41191C6.84742 8.46431 6.95776 8.5405 7.05001 8.63601L12 13.586L16.95 8.63601C17.1386 8.45385 17.3912 8.35305 17.6534 8.35533C17.9156 8.35761 18.1664 8.46278 18.3518 8.64819C18.5372 8.8336 18.6424 9.08441 18.6447 9.34661C18.647 9.6088 18.5462 9.86141 18.364 10.05L12.707 15.707Z" fill="#131313"/>
</g>
<defs>
<clipPath id="clip0_2_33">
<rect width="24" height="24" fill="white"/>
</clipPath>
</defs>
</svg>
